<?xml version="1.0" encoding="UTF-8"?>
<svg version="1.1" xmlns="http://www.w3.org/2000/svg" width="512" height="444">
<path d="M0 0 C0.99 0.33 1.98 0.66 3 1 C3.03963867 1.82387207 3.07927734 2.64774414 3.12011719 3.49658203 C4.10184208 22.99819454 6.04996614 41.68223373 10.59375 60.71875 C13.67272559 73.72882469 15.94525994 85.60881745 15 99 C13.02 99.99 13.02 99.99 11 101 C7.69913701 97.87756204 5.14878418 95.00455233 3 91 C2.54882812 90.19304687 2.09765625 89.38609375 1.6328125 88.5546875 C-0.59970031 83.69443234 -2.02793723 78.69672871 -3.5 73.5625 C-3.80824707 72.49950684 -4.11649414 71.43651367 -4.43408203 70.34130859 C-6.48220607 63.15270931 -8.19172882 55.99110399 -9.4921875 48.6328125 C-9.87072547 46.0337769 -9.87072547 46.0337769 -11 44 C-11.32871094 44.85078125 -11.65742188 45.7015625 -11.99609375 46.578125 C-29.98587101 92.40574188 -55.81030457 134.51388881 -87.47949219 172.17529297 C-89.48652518 174.58386147 -91.42648742 177.04398509 -93.375 179.5 C-102.97367608 191.21214604 -113.82403787 201.90744707 -124.5 212.625 C-125.32411377 213.45378662 -126.14822754 214.28257324 -126.99731445 215.13647461 C-131.83640779 219.96281671 -136.79002485 224.57710274 -142 229 C-142.97324219 229.83144531 -143.94648438 230.66289062 -144.94921875 231.51953125 C-173.05294404 255.05289322 -205.31926591 278.03218133 -241.59375 286.46801758 C-246.08672163 287.46849488 -246.08672163 287.46849488 -249 291 C-249.63566557 293.39162446 -249.63566557 293.39162446 -250.078125 296.09375 C-250.26600586 297.11436523 -250.45388672 298.13498047 -250.64746094 299.18652344 C-250.84629883 300.2799707 -251.04513672 301.37341797 -251.25 302.5 C-260.43113927 350.20645471 -285.70146073 392.89102251 -325.8125 420.96875 C-328.50074883 422.72891293 -331.22270424 424.38398217 -334 426 C-335.12792969 426.65742188 -336.25585938 427.31484375 -337.41796875 427.9921875 C-346.56943605 433.17316397 -355.9253554 437.0070857 -366 440 C-366.68916504 440.21172852 -367.37833008 440.42345703 -368.08837891 440.64160156 C-389.41259093 446.93660872 -414.76563092 446.11799908 -436 440 C-437.68609375 439.56300781 -437.68609375 439.56300781 -439.40625 439.1171875 C-459.01705205 433.02078599 -476.13884153 421.75156604 -492 409 C-492.94488281 408.24460937 -493.88976562 407.48921875 -494.86328125 406.7109375 C-495.56839844 406.14632813 -496.27351563 405.58171875 -497 405 C-496.505 403.02 -496.505 403.02 -496 401 C-494.99324219 401.61746094 -493.98648437 402.23492187 -492.94921875 402.87109375 C-456.68257028 424.83287967 -416.16555511 437.30879515 -373.6171875 427.25390625 C-339.59257415 418.34941254 -311.54613847 396.72407473 -293 367 C-292.5663916 366.30890137 -292.1327832 365.61780273 -291.68603516 364.90576172 C-277.98552588 342.65862095 -269.86994881 317.54342563 -265 292 C-265.62640381 291.99589111 -266.25280762 291.99178223 -266.89819336 291.98754883 C-302.79563279 291.58054838 -338.88326154 284.13744694 -364.80151367 257.66674805 C-381.73823655 239.63954344 -390.44491843 216.63735831 -390 192 C-389.59318225 181.53831168 -387.88169937 172.38265338 -383 163 C-382.56816406 162.15179688 -382.13632812 161.30359375 -381.69140625 160.4296875 C-372.61997155 144.03428993 -358.25099402 133.65265309 -340.5625 128.25 C-339.04535418 127.82010036 -337.52471212 127.40224134 -336 127 C-335.37464355 126.82799072 -334.74928711 126.65598145 -334.10498047 126.47875977 C-319.64959751 123.19100681 -304.44760742 127.05275743 -292.109375 134.70703125 C-281.10298609 142.82355171 -272.50084967 153.0226008 -266 165 C-265.65243652 165.63744141 -265.30487305 166.27488281 -264.94677734 166.93164062 C-254.77380933 186.03114206 -250.77758956 206.71204207 -248 228 C-247.89324951 228.77794922 -247.78649902 229.55589844 -247.67651367 230.35742188 C-246.68669215 238.5818915 -246.89039832 246.85643371 -246.9375 255.125 C-246.9425265 256.66926938 -246.94708736 258.21354034 -246.95117188 259.7578125 C-246.96208303 263.50524187 -246.97928386 267.25261049 -247 271 C-222.29599749 260.08144086 -198.65799207 248.31901465 -177 232 C-176.45827148 231.59571777 -175.91654297 231.19143555 -175.35839844 230.77490234 C-163.14307398 221.64056221 -151.65328345 211.74384364 -140.48388672 201.36621094 C-139.00313421 200.00288566 -137.50669674 198.6592778 -136.00390625 197.3203125 C-129.05928595 191.108309 -122.68936308 184.52845477 -116.45703125 177.60546875 C-115.04962981 176.05468593 -113.62340013 174.52438697 -112.1875 173 C-106.36312563 166.79653653 -100.99806877 160.35239897 -95.8046875 153.61328125 C-93.94852693 151.20572799 -92.06023391 148.83134868 -90.1328125 146.48046875 C-71.79205581 124.07928761 -55.58133631 99.38502205 -42.0234375 73.796875 C-38.83633983 67.78386177 -35.53826279 61.82997026 -32.26245117 55.86499023 C-29.39609538 50.6268012 -26.63267833 45.35960529 -24 40 C-25.010625 40.78375 -26.02125 41.5675 -27.0625 42.375 C-41.16649445 52.92190238 -56.15618462 61.77387083 -72 69.4375 C-72.8967041 69.87513672 -73.7934082 70.31277344 -74.71728516 70.76367188 C-79.14599455 72.86678806 -83.0491756 74.55214582 -88 75 C-88.66 74.01 -89.32 73.02 -90 72 C-78.44693273 52.74488788 -54.7967589 40.0845954 -36.84570312 27.31445312 C-33.28717151 24.78017611 -29.73482146 22.23744437 -26.1875 19.6875 C-25.43774902 19.14971924 -24.68799805 18.61193848 -23.91552734 18.05786133 C-19.94462142 15.19158923 -16.03287548 12.26913604 -12.1796875 9.24609375 C-11.40471924 8.63999268 -10.62975098 8.0338916 -9.83129883 7.40942383 C-8.34462882 6.24014899 -6.86497884 5.06188022 -5.39331055 3.8737793 C-4.72855713 3.35082275 -4.06380371 2.82786621 -3.37890625 2.2890625 C-2.7969751 1.82193848 -2.21504395 1.35481445 -1.61547852 0.87353516 C-1.08237061 0.58526855 -0.5492627 0.29700195 0 0 Z M-358 154 C-370.25501868 168.49150254 -374.32831017 185.01291996 -373.20703125 203.75830078 C-371.42720354 223.02997299 -361.1951278 239.32308874 -346.7578125 251.83984375 C-325.84255307 268.22247614 -298.5276058 276.8712419 -272 275 C-268.64647797 274.42028831 -265.32224719 273.73697146 -262 273 C-261.34375023 245.49051465 -262.53068199 218.65071185 -270.4375 192.0625 C-270.68371094 191.22847656 -270.92992187 190.39445312 -271.18359375 189.53515625 C-277.07958045 171.22656597 -287.15557947 153.88178985 -304.5234375 144.66015625 C-322.05149432 136.47845531 -343.76087197 141.35843268 -358 154 Z " fill="#7738DC" transform="translate(497,0)"/>
</svg>
